<svg xmlns="http://www.w3.org/2000/svg" width="1200" height="630" viewBox="0 0 1200 630" role="img" aria-label="DAIDS social preview image">
  <defs>
    <linearGradient id="bg" x1="140" y1="80" x2="1060" y2="550" gradientUnits="userSpaceOnUse">
      <stop offset="0" stop-color="#1d4ed8" />
      <stop offset="0.55" stop-color="#1e3a8a" />
      <stop offset="1" stop-color="#0f172a" />
    </linearGradient>
    <linearGradient id="panel" x1="240" y1="140" x2="960" y2="500" gradientUnits="userSpaceOnUse">
      <stop offset="0" stop-color="rgba(255,255,255,0.16)" />
      <stop offset="1" stop-color="rgba(255,255,255,0.08)" />
    </linearGradient>
    <filter id="soft-shadow" x="-20%" y="-20%" width="140%" height="140%">
      <feDropShadow dx="0" dy="20" stdDeviation="24" flood-color="#020617" flood-opacity="0.35" />
    </filter>
  </defs>

  <rect width="1200" height="630" fill="#0b1120" />
  <rect x="40" y="40" width="1120" height="550" rx="40" fill="url(#bg)" />
  <rect x="88" y="88" width="1024" height="454" rx="30" fill="url(#panel)" stroke="rgba(255,255,255,0.16)" />

  <g transform="translate(180 165)" filter="url(#soft-shadow)">
    <rect x="0" y="0" width="190" height="190" rx="44" fill="#0f172a" opacity="0.35" />
    <rect x="16" y="16" width="158" height="158" rx="36" fill="url(#bg)" />

    <rect x="50" y="50" width="68" height="92" rx="14" fill="#ffffff" opacity="0.96" />
    <rect x="64" y="72" width="40" height="8" rx="4" fill="#2563eb" />
    <rect x="64" y="88" width="40" height="8" rx="4" fill="#2563eb" />
    <rect x="64" y="104" width="30" height="8" rx="4" fill="#2563eb" />

    <path d="M134 52L141 66L155 73L141 80L134 94L127 80L113 73L127 66Z" fill="#38bdf8" />
  </g>

  <text x="420" y="250" fill="#ffffff" font-family="Inter, system-ui, sans-serif" font-size="74" font-weight="800" letter-spacing="2">DAIDS</text>
  <text x="420" y="315" fill="#bfdbfe" font-family="Inter, system-ui, sans-serif" font-size="34" font-weight="600">Docs AI Discoverability Scorer</text>
  <text x="420" y="388" fill="#e2e8f0" font-family="Inter, system-ui, sans-serif" font-size="28" font-weight="500">Audit docs for AI indexing, retrieval, and agent usability.</text>
  <text x="420" y="436" fill="#cbd5e1" font-family="Inter, system-ui, sans-serif" font-size="24">Get prioritized fixes and a clear score out of 100.</text>
</svg>
